<svg xmlns="http://www.w3.org/2000/svg" width="632" height="632" preserveAspectRatio="xMidYMid meet" version="1.0" viewBox="0 0 474 474"><metadata>Created by potrace 1.14, written by Peter Selinger 2001-2017</metadata><g fill="#000" stroke="none"><path d="M2830 4688 c-29 -46 -95 -117 -111 -118 -3 0 -16 -9 -29 -20 -13 -11 -29 -20 -37 -20 -7 0 -13 -5 -13 -10 0 -6 -8 -14 -17 -17 -10 -4 -42 -21 -70 -40 -29 -18 -53 -30 -53 -26 0 4 -7 -2 -15 -13 -8 -10 -15 -16 -15 -11 0 4 -9 -2 -20 -13 -11 -11 -26 -20 -34 -20 -8 0 -17 -7 -20 -16 -4 -9 -9 -14 -12 -11 -12 11 -201 -174 -224 -219 -8 -16 -18 -31 -22 -34 -11 -8 -71 -133 -71 -147 0 -7 -4 -13 -8 -13 -5 0 -6 -7 -3 -15 4 -8 1 -15 -7 -15 -7 0 -10 -3 -7 -6 3 -3 0 -29 -8 -57 -25 -93 -35 -294 -21 -397 4 -25 10 -65 13 -90 9 -67 11 -74 17 -90 4 -8 8 -24 10 -35 2 -11 10 -40 17 -65 8 -25 14 -47 15 -50 19 -67 27 -90 35 -95 6 -3 10 -13 10 -22 0 -21 60 -145 74 -155 7 -5 7 -8 1 -8 -6 0 -6 -3 0 -8 6 -4 19 -20 29 -37 16 -23 20 -53 23 -145 2 -63 3 -124 3 -135 -1 -11 -1 -27 -1 -35 2 -40 0 -84 -5 -92 -8 -12 -36 12 -31 26 8 24 -80 205 -104 214 -5 2 -9 8 -9 14 0 14 -114 123 -164 157 -23 16 -61 38 -86 51 -25 12 -48 27 -51 33 -4 5 -11 7 -17 3 -6 -3 -12 -2 -14 2 -7 18 -223 88 -303 98 -16 2 -37 6 -45 9 -47 15 -358 26 -362 13 -2 -4 -15 -8 -30 -10 -15 -2 -41 -14 -58 -26 -39 -29 -39 -60 -1 -122 16 -27 27 -51 24 -54 -4 -3 -1 -6 5 -6 7 0 11 -3 10 -7 -1 -5 1 -21 5 -38 4 -16 9 -52 12 -80 2 -27 6 -66 9 -85 3 -19 7 -56 8 -82 2 -27 5 -48 8 -48 3 0 7 -10 8 -22 2 -26 10 -63 12 -63 2 0 10 -36 12 -57 1 -10 5 -18 8 -18 4 0 7 -6 7 -13 0 -7 12 -40 28 -72 15 -33 27 -63 27 -67 -1 -5 2 -8 7 -8 5 0 12 -8 15 -17 3 -10 18 -31 33 -47 15 -17 44 -49 65 -73 21 -24 40 -43 43 -42 4 0 25 -14 47 -33 23 -18 44 -33 47 -33 3 0 27 -13 53 -28 57 -34 205 -94 250 -102 18 -3 40 -8 48 -10 20 -6 69 -15 100 -20 14 -2 45 -6 70 -10 45 -7 204 -8 268 -2 18 2 36 -1 40 -7 11 -18 8 -777 -3 -785 -5 -5 -35 -11 -65 -15 -30 -4 -62 -9 -70 -10 -9 -1 -21 -5 -28 -10 -6 -4 -12 -4 -12 1 0 4 -4 2 -8 -4 -5 -7 -21 -14 -36 -15 -15 -1 -32 -8 -37 -15 -6 -6 -17 -9 -25 -6 -8 3 -14 1 -14 -4 0 -6 -29 -22 -65 -38 -36 -15 -65 -31 -65 -36 0 -5 -5 -9 -11 -9 -12 0 -82 -54 -115 -87 -11 -13 -24 -20 -27 -16 -4 3 -7 2 -7 -4 0 -6 -11 -8 -25 -5 -14 2 -25 9 -25 14 0 6 -7 8 -15 4 -8 -3 -15 -1 -15 4 0 6 -9 10 -21 10 -12 0 -35 7 -52 14 -63 29 -258 42 -357 23 -76 -14 -91 -18 -117 -29 -15 -6 -34 -12 -41 -14 -7 -1 -28 -12 -48 -23 -19 -12 -32 -15 -29 -9 4 7 1 6 -7 -3 -7 -9 -23 -19 -36 -23 -12 -4 -22 -12 -22 -18 0 -6 -3 -9 -6 -5 -4 3 -12 1 -19 -6 -7 -7 -26 -22 -42 -34 -16 -12 -43 -35 -59 -50 -16 -15 -33 -26 -37 -25 -5 1 -6 -2 -3 -7 4 -5 -4 -17 -16 -25 -12 -9 -19 -16 -16 -16 4 0 -6 -15 -23 -32 -16 -18 -29 -38 -29 -45 0 -6 -6 -16 -13 -20 -20 -12 -79 -141 -84 -184 -7 -50 1 -78 35 -116 l28 -33 1810 0 1811 0 25 28 c17 20 24 38 23 63 -2 46 -16 98 -26 105 -5 3 -7 10 -4 15 4 5 2 9 -3 9 -5 0 -15 18 -22 40 -7 22 -17 40 -22 40 -4 0 -8 7 -8 15 0 8 -9 23 -20 32 -11 10 -20 24 -20 31 0 25 -209 222 -235 222 -4 0 -19 9 -35 20 -15 11 -30 17 -34 13 -3 -3 -6 -1 -6 5 0 7 -9 12 -20 12 -11 0 -20 5 -20 12 0 6 -3 8 -7 5 -3 -4 -12 -2 -20 4 -7 6 -13 8 -13 4 0 -4 -6 -3 -12 3 -7 5 -29 13 -48 18 -50 11 -50 11 -52 14 -7 5 -62 10 -153 14 -89 4 -181 -5 -225 -22 -8 -3 -17 -6 -20 -6 -41 -10 -100 -32 -100 -37 0 -27 -73 -1 -105 37 -5 7 -39 31 -75 53 -36 22 -70 44 -75 49 -6 5 -23 12 -37 15 -15 4 -33 13 -40 20 -7 6 -24 14 -38 15 -14 2 -26 8 -28 13 -2 5 -14 9 -26 9 -12 0 -26 4 -32 8 -8 8 -56 18 -169 38 -16 3 -32 8 -35 10 -2 3 -5 73 -6 156 0 109 3 154 12 163 16 15 108 32 224 41 184 13 259 23 310 39 10 3 27 8 37 10 24 5 87 29 93 35 3 3 11 6 19 8 8 2 27 12 42 23 15 10 30 19 33 19 23 0 186 149 186 170 0 5 7 10 16 10 8 0 13 4 10 9 -4 5 -3 11 1 13 17 7 131 218 137 252 1 6 7 21 14 32 6 12 8 24 5 28 -3 3 -1 6 6 6 7 0 10 4 7 9 -3 5 1 27 9 50 8 23 12 41 9 41 -2 0 2 15 9 33 8 17 13 40 11 50 -1 9 1 17 5 17 4 0 7 8 7 18 1 9 5 44 9 77 23 170 0 325 -50 342 -33 11 -38 10 -94 -19 -29 -15 -57 -25 -62 -22 -5 3 -9 1 -9 -5 0 -5 -8 -10 -17 -10 -59 -3 -100 -8 -110 -14 -8 -5 -13 -3 -13 5 0 8 -3 9 -8 3 -4 -6 -32 -10 -62 -10 -30 1 -59 -1 -65 -4 -5 -3 -28 -6 -50 -7 -59 -2 -135 -14 -175 -27 -19 -6 -41 -12 -48 -13 -22 -4 -155 -71 -181 -90 -13 -11 -40 -35 -60 -54 -20 -19 -39 -33 -43 -32 -5 1 -8 -2 -8 -8 0 -5 -8 -18 -17 -28 -37 -38 -59 -68 -78 -107 -11 -22 -24 -43 -30 -47 -7 -5 -7 -8 0 -8 6 0 3 -4 -5 -9 -8 -6 -17 -8 -20 -6 -8 5 -5 707 4 733 4 12 12 20 17 17 5 -4 9 -2 9 3 0 8 133 102 144 102 3 0 32 18 65 40 33 22 64 40 70 40 5 0 11 3 13 8 2 4 32 27 66 51 35 24 84 63 109 87 25 24 49 44 54 44 5 0 9 5 9 10 0 6 15 27 32 46 61 66 167 281 152 305 -3 5 -1 9 5 9 5 0 8 8 6 18 -1 9 0 22 4 27 3 6 7 19 8 30 2 11 6 31 9 45 3 14 7 57 8 95 0 39 6 73 11 77 7 5 7 8 0 8 -6 0 -12 30 -13 68 -2 37 -4 78 -7 92 -20 136 -20 135 -33 185 -6 22 -13 51 -16 65 -2 14 -11 45 -20 70 -19 51 -27 80 -28 98 -1 6 -4 12 -7 12 -3 0 -12 15 -19 33 -35 84 -81 163 -121 208 -38 42 -49 49 -82 49 -34 0 -40 -4 -69 -52z m-63 -683 c0 -8 -4 -15 -9 -15 -4 0 -8 -9 -8 -20 0 -11 -4 -20 -8 -20 -9 0 -36 -67 -36 -90 0 -8 -4 -17 -8 -20 -7 -6 -14 -92 -23 -305 -3 -55 -8 -111 -12 -125 -4 -14 -7 -36 -9 -50 -3 -39 -30 -131 -53 -177 -12 -23 -21 -47 -21 -53 0 -5 -3 -10 -7 -10 -5 -1 -24 -25 -43 -55 -19 -30 -38 -55 -42 -55 -5 0 -8 -7 -8 -16 0 -8 -4 -12 -10 -9 -5 3 -10 1 -10 -5 0 -6 -11 -21 -23 -33 -13 -12 -31 -34 -41 -49 -21 -33 -52 -31 -48 3 2 13 13 43 23 66 10 23 19 44 19 47 0 2 15 37 34 78 43 95 53 123 67 183 6 28 13 59 15 70 5 21 14 97 18 156 1 19 5 39 7 45 3 5 5 24 4 42 -1 17 1 32 4 32 3 0 6 15 7 33 2 50 37 181 55 203 5 6 6 14 2 17 -3 4 -1 7 5 7 6 0 13 8 16 18 7 21 63 83 96 105 30 21 47 22 47 2z m-1272 -1494 c3 -10 21 -27 40 -37 19 -10 35 -21 35 -25 0 -7 39 -22 53 -20 4 1 7 -3 7 -8 0 -8 37 -24 52 -22 3 0 12 -6 18 -14 7 -8 19 -15 26 -15 8 0 60 -23 117 -50 132 -66 148 -75 140 -83 -3 -4 0 -7 9 -7 18 0 118 -99 118 -117 0 -7 5 -13 10 -13 6 0 10 -7 10 -15 0 -8 5 -15 11 -15 5 0 8 -4 4 -9 -3 -5 -1 -12 5 -16 10 -6 64 -103 65 -117 0 -3 3 -10 8 -14 10 -11 9 -54 -2 -54 -13 0 -63 43 -147 125 -83 82 -111 105 -124 105 -6 0 -10 5 -10 10 0 6 -10 10 -22 10 -12 0 -18 3 -15 6 7 7 -54 43 -153 91 -30 15 -57 30 -60 33 -3 3 -26 16 -52 29 -27 13 -48 27 -48 30 0 4 -13 15 -30 24 -16 10 -30 25 -30 33 0 8 -4 12 -10 9 -5 -3 -10 1 -10 9 0 9 -3 16 -7 16 -26 0 -81 126 -69 156 5 13 9 12 30 -2 14 -8 28 -24 31 -33z m1722 -440 c1 -12 -9 -24 -28 -31 -35 -15 -99 -72 -99 -88 0 -7 -3 -12 -8 -12 -7 0 -40 -52 -91 -142 -51 -92 -62 -110 -87 -148 -15 -22 -31 -40 -35 -40 -5 0 -9 -6 -9 -13 0 -20 -134 -137 -157 -137 -7 0 -13 -5 -13 -12 0 -6 -3 -8 -7 -5 -3 4 -13 1 -22 -7 -9 -8 -25 -16 -36 -18 -11 -1 -22 -5 -25 -8 -13 -13 -52 -30 -69 -30 -11 0 -23 -5 -26 -10 -4 -6 -11 -8 -16 -5 -5 4 -9 2 -9 -2 0 -5 -9 -9 -20 -10 -11 -1 -18 2 -15 8 4 5 0 9 -7 9 -9 1 -7 5 4 14 10 7 15 16 11 19 -3 4 -2 7 4 7 6 0 37 25 69 55 33 30 62 55 66 55 17 0 131 128 179 200 29 44 57 80 62 80 6 0 8 3 4 6 -3 3 -1 11 4 18 27 32 89 121 89 128 0 4 4 8 9 8 5 0 24 14 42 31 40 37 129 90 141 83 4 -3 8 -1 8 4 0 5 19 10 43 10 35 1 43 -2 44 -17z" transform="translate(0.000000,474.000000) scale(0.100000,-0.100000)"/></g></svg>